<svg xmlns="http://www.w3.org/2000/svg" xmlns:xlink="http://www.w3.org/1999/xlink" width="800" height="520" viewBox="0 0 800 520"><rect x="123" y="420" width="526" height="24" rx="12" fill="#0967FF"/><path d="M268 127h63v45l101 196q18 36-21 36H188q-38 0-20-36l100-196Z" fill="#FFFFFF" stroke="#182039" stroke-width="5" stroke-linecap="round" stroke-linejoin="round" /><path d="M222 282h155l59 116H165Z" fill="#7C3AED" /><circle cx="267" cy="322" r="12" fill="#FFFFFF"/><circle cx="324" cy="355" r="17" fill="#FFFFFF"/><rect x="247" y="106" width="104" height="25" rx="8" fill="#FF6A1F"/><path d="M509 177h60v166q0 56-30 56t-30-56Z" fill="#FFFFFF" stroke="#182039" stroke-width="5" stroke-linecap="round" stroke-linejoin="round" /><path d="M515 269h49v74q0 49-25 49t-24-49Z" fill="#FF6A1F" /><rect x="492" y="158" width="94" height="22" rx="8" fill="#0967FF"/><circle cx="580" cy="105" r="13" fill="#7C3AED"/><circle cx="185" cy="206" r="12" fill="#FF6A1F"/></svg>